<svg xmlns="http://www.w3.org/2000/svg" width="40.047" height="40.523" viewBox="0 0 40.047 40.523"><defs><style>.a{fill:none;}.b{fill:#3f3d56;}.c{fill:#6c63ff;}.d{fill:#f2f2f2;}.e{opacity:0.2;}</style></defs><rect class="a" width="40.047" height="38.689" transform="translate(0 1.034)"/><path class="b" d="M52.164,0H24V40.523H52.164a1.4,1.4,0,0,0,1.4-1.4V1.4a1.4,1.4,0,0,0-1.4-1.4ZM25.518,39.8a.726.726,0,1,1,.513-.213A.726.726,0,0,1,25.518,39.8Zm0-2.508a.726.726,0,1,1,.513-.213A.726.726,0,0,1,25.518,37.289Zm0-2.508a.726.726,0,1,1,.513-.213A.726.726,0,0,1,25.518,34.781Zm0-2.508a.726.726,0,1,1,.513-.213.726.726,0,0,1-.513.213Zm0-2.508a.726.726,0,1,1,.513-.213A.726.726,0,0,1,25.518,29.765Zm0-2.508a.726.726,0,1,1,.513-.213.726.726,0,0,1-.513.213Zm0-2.508a.726.726,0,1,1,.513-.213.726.726,0,0,1-.513.213Zm0-2.508a.726.726,0,1,1,.513-.213.726.726,0,0,1-.513.213Zm0-2.508a.726.726,0,1,1,.513-.213.726.726,0,0,1-.513.213Zm0-2.508a.726.726,0,1,1,.513-.213.726.726,0,0,1-.513.213Zm0-2.508a.726.726,0,1,1,.513-.213.726.726,0,0,1-.513.213Zm0-2.508A.726.726,0,1,1,26.031,12a.726.726,0,0,1-.513.213Zm0-2.508a.726.726,0,1,1,.513-.213.726.726,0,0,1-.513.213Zm0-2.508a.726.726,0,1,1,.513-.213.726.726,0,0,1-.513.213Zm0-2.508a.726.726,0,1,1,.513-.213.726.726,0,0,1-.513.213Zm0-2.508a.726.726,0,1,1,.513-.213.726.726,0,0,1-.513.213Z" transform="translate(-22.416 0)"/><path d="M1.716,392.6c-.287,0-1.716-.014-1.716-.3,0-.259,1.212-.292,1.583-.3v.132a4.5,4.5,0,0,0-1.438.164,4.892,4.892,0,0,0,1.569.165,5.276,5.276,0,0,0,1.552-.156,3.845,3.845,0,0,0-.684-.119l.016-.131c.772.093.832.159.832.241C3.432,392.59,2,392.6,1.716,392.6Z" transform="translate(0 -366.139)"/><path d="M1.716,401.6c-.287,0-1.716-.014-1.716-.3,0-.259,1.212-.292,1.583-.3v.132a4.5,4.5,0,0,0-1.438.164,4.895,4.895,0,0,0,1.569.165,5.5,5.5,0,0,0,1.54-.151c-.15-.04-.52-.083-.734-.108l-.135-.016.016-.131.135.016c.807.094.9.129.9.225C3.432,401.59,2,401.6,1.716,401.6Z" transform="translate(0 -374.545)"/><path d="M1.716,355.6c-.287,0-1.716-.014-1.716-.3,0-.259,1.212-.292,1.583-.3v.132a4.505,4.505,0,0,0-1.438.164,4.892,4.892,0,0,0,1.569.165,5.278,5.278,0,0,0,1.552-.156,3.848,3.848,0,0,0-.684-.119l.016-.131c.772.093.832.159.832.241C3.432,355.59,2,355.6,1.716,355.6Z" transform="translate(0 -331.581)"/><path d="M1.716,364.6c-.287,0-1.716-.014-1.716-.3,0-.259,1.212-.292,1.583-.3v.132a4.5,4.5,0,0,0-1.438.164,4.894,4.894,0,0,0,1.569.165,5.5,5.5,0,0,0,1.54-.151c-.15-.04-.52-.083-.734-.108l-.135-.016.016-.131.135.016c.807.094.9.129.9.225C3.432,364.59,2,364.6,1.716,364.6Z" transform="translate(0 -339.987)"/><path d="M1.716,316.6c-.287,0-1.716-.014-1.716-.3,0-.259,1.212-.292,1.583-.3v.132a4.5,4.5,0,0,0-1.438.164,4.894,4.894,0,0,0,1.569.165,5.275,5.275,0,0,0,1.552-.156,3.845,3.845,0,0,0-.684-.119l.016-.131c.772.093.832.159.832.241C3.432,316.59,2,316.6,1.716,316.6Z" transform="translate(0 -295.154)"/><path d="M1.716,325.6c-.287,0-1.716-.014-1.716-.3,0-.259,1.212-.292,1.583-.3v.132a4.5,4.5,0,0,0-1.438.164,4.892,4.892,0,0,0,1.569.165,5.5,5.5,0,0,0,1.54-.151c-.15-.04-.52-.083-.734-.108l-.135-.016.016-.131.135.016c.807.094.9.129.9.225C3.432,325.59,2,325.6,1.716,325.6Z" transform="translate(0 -303.56)"/><path d="M1.716,278.6c-.287,0-1.716-.014-1.716-.3,0-.259,1.212-.292,1.583-.3v.132a4.506,4.506,0,0,0-1.438.164,4.892,4.892,0,0,0,1.569.165,5.276,5.276,0,0,0,1.552-.156,3.848,3.848,0,0,0-.684-.119l.016-.131c.772.093.832.159.832.241C3.432,278.59,2,278.6,1.716,278.6Z" transform="translate(0 -259.662)"/><path d="M1.716,287.6c-.287,0-1.716-.014-1.716-.3,0-.259,1.212-.292,1.583-.3v.132a4.5,4.5,0,0,0-1.438.164,4.894,4.894,0,0,0,1.569.165,5.5,5.5,0,0,0,1.54-.151c-.15-.04-.52-.083-.734-.108l-.135-.016.016-.131.135.016c.807.094.9.129.9.225C3.432,287.59,2,287.6,1.716,287.6Z" transform="translate(0 -268.068)"/><path d="M1.716,240.6c-.287,0-1.716-.014-1.716-.3,0-.259,1.212-.292,1.583-.3v.132a4.5,4.5,0,0,0-1.438.164,4.892,4.892,0,0,0,1.569.165,5.277,5.277,0,0,0,1.552-.156,3.84,3.84,0,0,0-.684-.119l.016-.131c.772.093.832.158.832.241C3.432,240.59,2,240.6,1.716,240.6Z" transform="translate(0 -224.171)"/><path d="M1.716,249.6c-.287,0-1.716-.014-1.716-.3,0-.259,1.212-.292,1.583-.3v.132a4.506,4.506,0,0,0-1.438.164,4.892,4.892,0,0,0,1.569.165,5.5,5.5,0,0,0,1.54-.151c-.15-.04-.521-.083-.736-.108l-.134-.016.016-.131.134.016c.808.094.9.129.9.225C3.432,249.59,2,249.6,1.716,249.6Z" transform="translate(0 -232.577)"/><path d="M1.716,202.6c-.287,0-1.716-.014-1.716-.3,0-.259,1.212-.292,1.583-.3v.132a4.505,4.505,0,0,0-1.438.164,4.892,4.892,0,0,0,1.569.165,5.277,5.277,0,0,0,1.552-.156,3.841,3.841,0,0,0-.684-.119l.016-.131c.772.093.832.158.832.241C3.432,202.59,2,202.6,1.716,202.6Z" transform="translate(0 -188.679)"/><path d="M1.716,211.6c-.287,0-1.716-.014-1.716-.3,0-.259,1.212-.292,1.583-.3v.132a4.5,4.5,0,0,0-1.438.164,4.893,4.893,0,0,0,1.569.165,5.5,5.5,0,0,0,1.54-.151c-.15-.04-.521-.083-.736-.108l-.134-.016.016-.131.134.016c.808.094.9.129.9.225C3.432,211.59,2,211.6,1.716,211.6Z" transform="translate(0 -197.085)"/><path d="M1.716,164.6c-.287,0-1.716-.014-1.716-.3,0-.259,1.212-.292,1.583-.3v.132a4.505,4.505,0,0,0-1.438.164,4.893,4.893,0,0,0,1.569.165,5.278,5.278,0,0,0,1.552-.156,3.834,3.834,0,0,0-.684-.119l.016-.131c.772.093.832.158.832.241C3.432,164.59,2,164.6,1.716,164.6Z" transform="translate(0 -153.187)"/><path d="M1.716,173.6c-.287,0-1.716-.014-1.716-.3,0-.259,1.212-.292,1.583-.3v.132a4.5,4.5,0,0,0-1.438.164,4.892,4.892,0,0,0,1.569.165,5.5,5.5,0,0,0,1.54-.151c-.15-.04-.521-.083-.736-.108l-.134-.016.016-.131.134.016c.808.094.9.129.9.225C3.432,173.59,2,173.6,1.716,173.6Z" transform="translate(0 -161.593)"/><path d="M1.716,126.6c-.287,0-1.716-.014-1.716-.3,0-.259,1.212-.292,1.583-.3v.132a4.5,4.5,0,0,0-1.438.164,4.893,4.893,0,0,0,1.569.165,5.278,5.278,0,0,0,1.552-.156,3.839,3.839,0,0,0-.684-.119l.016-.131c.772.093.832.158.832.241C3.432,126.59,2,126.6,1.716,126.6Z" transform="translate(0 -117.695)"/><path d="M1.716,135.6c-.287,0-1.716-.014-1.716-.3,0-.259,1.212-.292,1.583-.3v.132a4.505,4.505,0,0,0-1.438.164,4.893,4.893,0,0,0,1.569.165,5.5,5.5,0,0,0,1.54-.151c-.15-.04-.521-.083-.736-.108l-.134-.016.016-.131.134.016c.808.094.9.129.9.225C3.432,135.59,2,135.6,1.716,135.6Z" transform="translate(0 -126.101)"/><path d="M1.716,88.6C1.429,88.6,0,88.59,0,88.307c0-.259,1.212-.292,1.583-.3v.132a4.5,4.5,0,0,0-1.438.164,4.892,4.892,0,0,0,1.569.165,5.278,5.278,0,0,0,1.552-.156,3.838,3.838,0,0,0-.684-.119l.016-.131c.772.093.832.158.832.241C3.432,88.59,2,88.6,1.716,88.6Z" transform="translate(0 -82.203)"/><path d="M1.716,97.6C1.429,97.6,0,97.59,0,97.307c0-.259,1.212-.292,1.583-.3v.132a4.5,4.5,0,0,0-1.438.164,4.892,4.892,0,0,0,1.569.165,5.5,5.5,0,0,0,1.54-.151c-.15-.04-.521-.083-.736-.108L2.386,97.2l.016-.131.134.016c.808.094.9.129.9.225C3.432,97.59,2,97.6,1.716,97.6Z" transform="translate(0 -90.609)"/><path d="M1.716,50.6C1.429,50.6,0,50.59,0,50.307c0-.259,1.212-.292,1.583-.3v.132a4.5,4.5,0,0,0-1.438.164,4.892,4.892,0,0,0,1.569.165,5.277,5.277,0,0,0,1.552-.156,3.839,3.839,0,0,0-.684-.119l.016-.131c.772.093.832.158.832.241C3.432,50.59,2,50.6,1.716,50.6Z" transform="translate(0 -46.711)"/><path d="M1.716,59.6C1.429,59.6,0,59.59,0,59.307c0-.259,1.212-.292,1.583-.3v.132a4.5,4.5,0,0,0-1.438.164,4.892,4.892,0,0,0,1.569.165,5.5,5.5,0,0,0,1.54-.151c-.15-.04-.521-.083-.736-.108L2.386,59.2l.016-.131.134.016c.808.094.9.129.9.225C3.432,59.59,2,59.6,1.716,59.6Z" transform="translate(0 -55.117)"/><path d="M1.716,12.6C1.429,12.6,0,12.59,0,12.307c0-.259,1.212-.292,1.583-.3v.132a4.5,4.5,0,0,0-1.438.164,4.893,4.893,0,0,0,1.569.165,5.277,5.277,0,0,0,1.552-.156,3.839,3.839,0,0,0-.684-.119l.016-.131c.772.093.832.158.832.241C3.432,12.59,2,12.6,1.716,12.6Z" transform="translate(0 -11.219)"/><path d="M1.716,21.6C1.429,21.6,0,21.59,0,21.307c0-.259,1.212-.292,1.583-.3v.132a4.5,4.5,0,0,0-1.438.164,4.893,4.893,0,0,0,1.569.165,5.5,5.5,0,0,0,1.54-.151c-.15-.04-.521-.083-.736-.108L2.386,21.2l.016-.131.134.016c.808.094.9.129.9.225C3.432,21.59,2,21.6,1.716,21.6Z" transform="translate(0 -19.625)"/><path d="M1.716,431.6c-.287,0-1.716-.014-1.716-.3,0-.259,1.212-.292,1.583-.3v.132a4.5,4.5,0,0,0-1.438.164,4.892,4.892,0,0,0,1.569.165,5.277,5.277,0,0,0,1.552-.156,3.855,3.855,0,0,0-.684-.119l.016-.131c.772.093.832.159.832.241C3.432,431.59,2,431.6,1.716,431.6Z" transform="translate(0 -402.565)"/><path d="M1.716,440.6c-.287,0-1.716-.014-1.716-.3,0-.259,1.212-.292,1.583-.3v.132a4.5,4.5,0,0,0-1.438.164,4.893,4.893,0,0,0,1.569.165,5.5,5.5,0,0,0,1.54-.151c-.15-.04-.52-.083-.734-.108l-.135-.016.016-.131.135.016c.807.094.9.129.9.225C3.432,440.59,2,440.6,1.716,440.6Z" transform="translate(0 -410.971)"/><path d="M1.716,468.6c-.287,0-1.716-.014-1.716-.3,0-.259,1.212-.292,1.583-.3v.132a4.5,4.5,0,0,0-1.438.164,4.893,4.893,0,0,0,1.569.165,5.275,5.275,0,0,0,1.552-.156,3.848,3.848,0,0,0-.684-.119l.016-.131c.772.093.832.158.832.241C3.432,468.59,2,468.6,1.716,468.6Z" transform="translate(0 -437.123)"/><path d="M1.716,477.6c-.287,0-1.716-.014-1.716-.3,0-.259,1.212-.292,1.583-.3v.132a4.5,4.5,0,0,0-1.438.164,4.893,4.893,0,0,0,1.569.165,5.5,5.5,0,0,0,1.54-.151c-.15-.04-.52-.083-.734-.108l-.135-.016.016-.131.135.016c.807.094.9.129.9.225C3.432,477.59,2,477.6,1.716,477.6Z" transform="translate(0 -445.529)"/><path d="M1.716,507.6c-.287,0-1.716-.014-1.716-.3,0-.259,1.212-.292,1.583-.3v.132a4.5,4.5,0,0,0-1.438.164,4.893,4.893,0,0,0,1.569.165,5.276,5.276,0,0,0,1.552-.156,3.845,3.845,0,0,0-.684-.119l.016-.131c.772.093.832.159.832.241C3.432,507.59,2,507.6,1.716,507.6Z" transform="translate(0 -473.549)"/><path d="M1.716,516.6c-.287,0-1.716-.014-1.716-.3,0-.259,1.212-.292,1.583-.3v.132a4.508,4.508,0,0,0-1.438.164,4.892,4.892,0,0,0,1.569.165,5.5,5.5,0,0,0,1.54-.151c-.15-.04-.52-.083-.734-.108l-.135-.016.016-.131.135.016c.807.094.9.129.9.225C3.432,516.59,2,516.6,1.716,516.6Z" transform="translate(0 -481.955)"/><path d="M1.716,544.6c-.287,0-1.716-.014-1.716-.3,0-.259,1.212-.292,1.583-.3v.132a4.5,4.5,0,0,0-1.438.164,4.892,4.892,0,0,0,1.569.165,5.277,5.277,0,0,0,1.552-.156,3.842,3.842,0,0,0-.684-.119l.016-.131c.772.093.832.158.832.241C3.432,544.59,2,544.6,1.716,544.6Z" transform="translate(0 -508.107)"/><path d="M1.716,553.6c-.287,0-1.716-.014-1.716-.3,0-.259,1.212-.292,1.583-.3v.132a4.5,4.5,0,0,0-1.438.164,4.892,4.892,0,0,0,1.569.165,5.5,5.5,0,0,0,1.54-.151c-.15-.04-.52-.083-.734-.108l-.135-.016.016-.131.135.016c.807.094.9.129.9.225C3.432,553.59,2,553.6,1.716,553.6Z" transform="translate(0 -516.513)"/><path d="M1.716,582.6c-.287,0-1.716-.014-1.716-.3,0-.259,1.212-.292,1.583-.3v.132a4.506,4.506,0,0,0-1.438.164,4.892,4.892,0,0,0,1.569.165,5.277,5.277,0,0,0,1.552-.156,3.848,3.848,0,0,0-.684-.119l.016-.131c.772.093.832.159.832.241C3.432,582.59,2,582.6,1.716,582.6Z" transform="translate(0 -543.599)"/><path d="M1.716,591.6c-.287,0-1.716-.014-1.716-.3,0-.259,1.212-.292,1.583-.3v.132a4.5,4.5,0,0,0-1.438.164,4.892,4.892,0,0,0,1.569.165,5.5,5.5,0,0,0,1.54-.151c-.15-.04-.52-.083-.734-.108l-.135-.016.016-.131.135.016c.807.094.9.129.9.225C3.432,591.59,2,591.6,1.716,591.6Z" transform="translate(0 -552.005)"/><rect class="c" width="16.566" height="7.524" transform="translate(9.273 10.791)"/><path class="d" d="M164.607,231.965a9.139,9.139,0,0,1,3.3-.332c1.151.1,2.263.443,3.4.632a20.107,20.107,0,0,0,3.162.273,5.44,5.44,0,0,0,2.846-.422c.108-.067.009-.238-.1-.171a3.175,3.175,0,0,1-1.55.367q-.818.044-1.638.02a19.807,19.807,0,0,1-3.288-.372,22.324,22.324,0,0,0-3.081-.544,9.333,9.333,0,0,0-3.106.357.1.1,0,0,0,.053.191Z" transform="translate(-153.629 -216.131)"/><path class="d" d="M164.608,200.965a9.138,9.138,0,0,1,3.3-.332c1.151.1,2.263.443,3.4.632a20.109,20.109,0,0,0,3.162.273,5.44,5.44,0,0,0,2.846-.422c.108-.067.009-.238-.1-.171a3.175,3.175,0,0,1-1.55.367q-.818.044-1.638.02a19.8,19.8,0,0,1-3.288-.372,22.322,22.322,0,0,0-3.081-.544,9.334,9.334,0,0,0-3.106.357.1.1,0,0,0,.053.191Z" transform="translate(-153.63 -187.177)"/><path class="e" d="M301.909,473.61v7.862a1.4,1.4,0,0,1-1.4,1.4H289.89Z" transform="translate(-270.758 -442.352)"/><path class="e" d="M273.684,1.4V8.915L259.67,0h12.61a1.4,1.4,0,0,1,1.4,1.4Z" transform="translate(-242.532)"/></svg>