<svg xmlns="http://www.w3.org/2000/svg" xmlns:xlink="http://www.w3.org/1999/xlink" data-name="Layer 1" width="707" height="426.0000099341071"><rect id="backgroundrect" width="100%" height="100%" x="0" y="0" fill="none" stroke="none" class="" style=""/><defs><linearGradient id="3cf802be-0480-4c68-848a-073112220499" x1="0.4999830722808838" y1="1.0000596046447754" x2="0.4999830722808838" y2="-0.000015019134480098728"><stop offset="0" stop-color="gray" stop-opacity="0.25"/><stop offset="0.54" stop-color="gray" stop-opacity="0.12"/><stop offset="1" stop-color="gray" stop-opacity="0.1"/></linearGradient></defs><title>book lover</title><g class="currentLayer" style=""><title>Layer 1</title><polygon points="385.7210168838501,333.32000732421875 43.44101428985596,331.6500244140625 9.431015968322754,251.8800048828125 129.69101810455322,243.1500244140625 108.7310266494751,155.69000244140625 346.5910120010376,124.86001586914062 118.82101535797119,45.67999267578125 138.94101810455322,40.899993896484375 505.1909875869751,100.64999389648438 485.02100467681885,237.1400146484375 456.1910181045532,312.1500244140625 385.7210168838501,333.32000732421875 " fill="#6c63ff" id="svg_2" class=""/><path d="M48.69101428985596,298.24000915527347 s21,-3.36 33.6,11.48 c0,0 -9.24,7.28 -29.12,-2.8 z" fill="#6c63ff" id="svg_3" class=""/><path d="M46.49101428985597,297.9100091552734 S33.09101428985596,314.40000915527344 39.69101428985596,332.76000915527345 c0,0 10.92,-4.37 12.11,-26.63 z" fill="#6c63ff" id="svg_4" class=""/><path d="M34.45101428985595,270.8000091552734 s8.4,-15.41 42,6.16 c0,0 -4.48,10.36 -19.32,9.52 S38.371014289855964,278.9200091552734 34.45101428985595,270.8000091552734 z" fill="#6c63ff" id="svg_5" class=""/><path d="M32.28101428985596,269.6900091552734 s-17.43,-2 -19.12,37.9 c0,0 11.05,2.29 18.9,-10.33 S36.69101428985596,277.5600091552734 32.28101428985596,269.6900091552734 z" fill="#6c63ff" id="svg_6" class=""/><path d="M581.0010142898559,269.76000915527345 s-22.67,27.67 -4.67,69.5 l-181,78.5 L377.96101428985594,421.40000915527344 l-8,-35 l5.35,-44.17 V318.0900091552735 z" fill="#d5d6db" id="svg_39" class=""/><polygon points="9.431015968322754,251.8800048828125 259.9509973526001,206.21002197265625 591.9010095596313,259.09002685546875 385.7210168838501,333.32000732421875 9.431015968322754,251.8800048828125 " fill="#6c63ff" id="svg_40" class=""/><polygon points="9.431015968322754,251.8800048828125 259.9509973526001,206.21002197265625 591.9010095596313,259.09002685546875 385.7210168838501,333.32000732421875 9.431015968322754,251.8800048828125 " fill="#6c63ff" id="svg_41" class=""/><path d="M9.431014289855966,251.87000915527346 s-23.43,44.39 3.5700000000000003,85.39 l371.5,80.5 S361.44101428985596,382.40000915527344 385.69101428985596,333.3200091552734 z" fill="#6c63ff" id="svg_42" class=""/><path d="M9.431014289855966,251.87000915527346 s-23.43,44.39 3.5700000000000003,85.39 l371.5,80.5 S361.44101428985596,382.40000915527344 385.69101428985596,333.3200091552734 z" opacity="0.1" id="svg_43" class=""/><path d="M20.50101428985596,267.26000915527345 s-13.39,32.48 0,53.5 " opacity="0.1" id="svg_44" class=""/><path d="M384.5010142898559,417.76000915527345 l207.4,-88.5 s11.6,2.5 4.1,11 s-207.5,86 -207.5,86 l-375.5,-89 z" fill="#6c63ff" id="svg_45" class=""/><path d="M384.5010142898559,417.76000915527345 l207.4,-88.5 s11.6,2.5 4.1,11 s-207.5,86 -207.5,86 l-375.5,-89 z" opacity="0.1" id="svg_46" class=""/><path d="M367.50101428985596,342.26000915527345 s-20,24 0,60 " opacity="0.1" id="svg_47" class=""/><rect x="161.18101978302002" y="572.3300170898438" width="94.56999969482422" height="1" transform="rotate(-18.450000762939453 -349.4989929199218,-185.02999877929682) " opacity="0.1" id="svg_48" class=""/><rect x="137.77101612091064" y="610.489990234375" width="115.2300033569336" height="1" transform="rotate(-20.81999969482422 -371.5790100097655,-149.3699951171874) " opacity="0.1" id="svg_49" class=""/><rect x="123.4610185623169" y="639.010009765625" width="133.55999755859375" height="1" transform="rotate(-22.260000228881836 -385.239013671875,-125.5999908447265) " opacity="0.1" id="svg_50" class=""/><rect x="106.15102100372314" y="674.9400024414062" width="153.74000549316406" height="1" transform="rotate(-24.309999465942383 -402.21899414062494,-91.58999633789064) " opacity="0.1" id="svg_51" class=""/><rect x="112.52101612091064" y="670.0499877929688" width="168.14999389648438" height="1" transform="rotate(-23.610000610351562 -396.68899536132807,-98.58999633789065) " opacity="0.1" id="svg_52" class=""/><rect x="116.88100147247314" y="674.0099487304688" width="201.22000122070312" height="1" transform="rotate(-23.360000610351562 -393.4490051269532,-95.25000000000007) " opacity="0.1" id="svg_53" class=""/><polygon points="102.50100803375244,256.760009765625 278.501015663147,219.760009765625 385.7210168838501,240.260009765625 241.50103092193604,286.760009765625 102.50100803375244,256.760009765625 " fill="#fff" opacity="0.3" id="svg_54" class=""/><path d="M591.901014289856,259.0900091552735 s9.1,3.67 3.7600000000000002,9.34 S385.69101428985596,333.3200091552734 385.69101428985596,333.3200091552734 z" fill="#6c63ff" id="svg_55" class=""/><path d="M680.291014289856,173.5800091552734 s-22.66,27.66 -4.66,69.5 l-181,78.5 l-17.37,3.66 l-8,-35 L474.69101428985596,246.0800091552734 V221.91000915527343 z" fill="#d5d6db" id="svg_56" class=""/><polygon points="108.7310266494751,155.69000244140625 359.241005897522,110.02999877929688 691.2009973526001,162.9100341796875 485.02100467681885,237.1400146484375 108.7310266494751,155.69000244140625 " fill="#3a3768" id="svg_57" class=""/><path d="M108.69101428985596,155.6900091552734 s-23.44,44.39 3.56,85.39 l371.5,80.5 s-23.05,-35.39 1.23,-84.45 z" fill="#3a3768" id="svg_58" class=""/><path d="M108.69101428985596,155.6900091552734 s-23.44,44.39 3.56,85.39 l371.5,80.5 s-23.05,-35.39 1.23,-84.45 L367.50101428985596,211.7000091552734 z" opacity="0.1" id="svg_59" class=""/><path d="M119.79101428985598,171.0800091552734 s-13.38,32.47 0,53.5 " opacity="0.1" id="svg_60" class=""/><path d="M483.791014289856,321.5800091552734 l207.41,-88.5 s11.59,2.5 4.09,11 s-207.5,86 -207.5,86 l-375.5,-89 z" fill="#3a3768" id="svg_61" class=""/><path d="M483.791014289856,321.5800091552734 l207.41,-88.5 s11.59,2.5 4.09,11 s-207.5,86 -207.5,86 l-375.5,-89 z" opacity="0.1" id="svg_62" class=""/><path d="M466.791014289856,246.0800091552734 s-20,24 0,60 " opacity="0.1" id="svg_63" class=""/><rect x="296.0209856033325" y="502.6400146484375" width="94.56999969482422" height="1" transform="rotate(-18.450000762939453 -313.94900512695307,-158.53999328613287) " opacity="0.1" id="svg_64" class=""/><rect x="277.75102710723877" y="543.3300170898438" width="115.2300033569336" height="1" transform="rotate(-20.81999969482422 -330.8990173339843,-120.34999084472648) " opacity="0.1" id="svg_65" class=""/><rect x="266.5910234451294" y="573.2699584960938" width="133.55999755859375" height="1" transform="rotate(-22.260000228881836 -341.4089965820313,-95.16000366210936) " opacity="0.1" id="svg_66" class=""/><rect x="253.86098194122314" y="611.1000366210938" width="153.74000549316406" height="1" transform="rotate(-24.309999465942383 -353.79901123046875,-59.23999023437506) " opacity="0.1" id="svg_67" class=""/><rect x="258.65102100372314" y="605.5700073242188" width="168.14999389648438" height="1" transform="rotate(-23.610000610351562 -349.85900878906256,-66.88000488281263) " opacity="0.1" id="svg_68" class=""/><rect x="262.4610185623169" y="609.2999877929688" width="201.22000122070312" height="1" transform="rotate(-23.360000610351562 -347.1690063476563,-63.76998901367183) " opacity="0.1" id="svg_69" class=""/><polygon points="201.80101871490479,160.58001708984375 377.8010034561157,123.58001708984375 485.02100467681885,144.08001708984375 340.8010034561157,190.58001708984375 201.80101871490479,160.58001708984375 " fill="#fff" opacity="0.45" id="svg_70" class=""/><path d="M691.201014289856,162.91000915527343 s9.09,3.67 3.7600000000000002,9.33 s-209.94,64.89 -209.94,64.89 z" fill="#3a3768" id="svg_71" class=""/><path d="M689.691014289856,63.550009155273415 s-22.67,49.67 -4.67,91.5 l-181,56.5 L486.69101428985596,215.2200091552735 l-8,-35 l5.35,-44.17 V111.88000915527346 z" fill="#d5d6db" id="svg_72" class=""/><polygon points="118.16101169586182,45.670013427734375 368.6810083389282,0 700.6409997940063,52.8800048828125 494.4509973526001,127.11001586914062 118.16101169586182,45.670013427734375 " fill="#6c63ff" id="svg_73" class=""/><path d="M118.16101428985598,45.66000915527343 S94.69101428985596,90.05000915527341 121.69101428985596,131.05000915527341 l371.5,80.5 s-23.06,-35.39 1.22,-84.44 z" fill="#6c63ff" id="svg_74" class=""/><path d="M118.16101428985598,45.66000915527343 S94.69101428985596,90.05000915527341 121.69101428985596,131.05000915527341 l371.5,80.5 s-23.06,-35.39 1.22,-84.44 z" opacity="0.1" id="svg_75" class=""/><path d="M129.23101428985598,61.050009155273415 s-13.39,32.48 0,53.5 " opacity="0.1" id="svg_76" class=""/><path d="M493.2310142898559,211.55000915527341 l207.4,-66.5 s11.6,2.5 4.1,11 s-207.5,64 -207.5,64 l-375.5,-89 z" fill="#6c63ff" id="svg_77" class=""/><path d="M493.2310142898559,211.55000915527341 l207.4,-66.5 s11.6,2.5 4.1,11 s-207.5,64 -207.5,64 l-375.5,-89 z" opacity="0.1" id="svg_78" class=""/><path d="M476.2310142898559,136.05000915527341 s-20,24 0,60 " opacity="0.1" id="svg_79" class=""/><rect x="340.7709856033325" y="389.94000244140625" width="94.56999969482422" height="1" transform="rotate(-18.450000762939453 -278.63900756835943,-161.2099914550782) " opacity="0.1" id="svg_80" class=""/><rect x="326.91103076934814" y="429.47003173828125" width="115.2300033569336" height="1" transform="rotate(-20.81999969482422 -291.16900634765614,-124.17999267578122) " opacity="0.1" id="svg_81" class=""/><rect x="318.40102100372314" y="458.62005615234375" width="133.55999755859375" height="1" transform="rotate(-22.260000228881836 -299.02899169921875,-99.77999877929693) " opacity="0.1" id="svg_82" class=""/><rect x="309.4309892654419" y="495.20001220703125" width="153.74000549316406" height="1" transform="rotate(-24.309999465942383 -307.66900634765625,-65.11999511718743) " opacity="0.1" id="svg_83" class=""/><rect x="312.9510087966919" y="490.1199951171875" width="168.14999389648438" height="1" transform="rotate(-23.610000610351562 -304.99899291992193,-72.30999755859378) " opacity="0.1" id="svg_84" class=""/><rect x="316.30104541778564" y="494.010009765625" width="201.22000122070312" height="1" transform="rotate(-23.360000610351562 -302.7689819335938,-69.03997802734371) " opacity="0.1" id="svg_85" class=""/><polygon points="211.23101139068604,50.550018310546875 387.230996131897,13.550018310546875 494.4509973526001,34.050018310546875 350.230996131897,80.55001831054688 211.23101139068604,50.550018310546875 " fill="#fff" opacity="0.3" id="svg_86" class=""/><path d="M700.631014289856,52.880009155273456 s9.1,3.67 3.7600000000000002,9.34 s-209.94,64.89 -209.94,64.89 z" fill="#6c63ff" id="svg_87" class=""/><path d="M512.2110142898559,61.53000915527343 A76.56,76.56 0 0 1 523.691014289856,54.40000915527344 c6,-2.89 17,-10.39 17,-10.39 " opacity="0.1" id="svg_159" class=""/></g></svg>