<svg xmlns="http://www.w3.org/2000/svg" width="112.942" height="72.509" viewBox="0 0 112.942 72.509"><defs><style>.a{fill:none;}.b,.c{fill:#6c63ff;}.b,.e{opacity:0.1;}.d{fill:#d5d6db;}.f,.h{fill:#fff;}.f{opacity:0.3;}.g{fill:#3a3768;}.h{opacity:0.45;}</style></defs><g transform="translate(59.298 25.218)"><rect class="a" width="106.654" height="61.775" transform="translate(-53.009 -20.484)"/><g transform="translate(-51.642 -20.555)"><path class="b" d="M67.755,12.873c-7.111-.225-13.885-2.314-20.353-4.6S34.529,3.454,27.588,2.243c-4.464-.779-9.57-.889-13.167,1.289-3.462,2.1-4.581,5.715-5.182,9.074-.453,2.526-.719,5.184.522,7.55.86,1.642,2.389,3.022,3.445,4.6,3.678,5.472,1.079,12.221-2.906,17.564-1.868,2.507-4.038,4.9-5.48,7.567s-2.11,5.725-.848,8.448c1.252,2.7,4.232,4.724,7.461,6.149,6.559,2.9,14.284,3.723,21.823,4.192,16.683,1.039,33.453.589,50.18.139a161.632,161.632,0,0,0,18.5-1.207c3.382-.484,6.873-1.251,9.329-3.105,3.116-2.353,3.889-6.338,1.8-9.289-3.5-4.949-13.185-6.178-15.638-11.491-1.347-2.923.037-6.179,2-8.892,4.2-5.816,11.244-10.92,11.615-17.568.255-4.567-3.132-9.14-8.366-11.3-5.486-2.273-13.1-1.985-17.142,1.764C81.358,11.589,74.034,13.071,67.755,12.873Z" transform="translate(-10.962 -6.396)"/><path class="c" d="M91.946,407.044l-38.919-.19-3.867-9.07,13.674-.993-2.383-9.945L87.5,383.341l-25.9-9,2.288-.544,41.645,6.794-2.293,15.52-3.278,8.529Z" transform="translate(-44.996 -355.908)"/><path class="c" d="M88.42,630.845a4.465,4.465,0,0,1,3.821,1.305s-1.051.828-3.311-.318Z" transform="translate(-79.792 -583.698)"/><path class="c" d="M78.574,630.8a4.453,4.453,0,0,0-.773,3.963s1.242-.5,1.377-3.028Z" transform="translate(-70.196 -583.695)"/><path class="c" d="M74.18,598.967s.955-1.752,4.776.7a2.144,2.144,0,0,1-2.2,1.083A2.589,2.589,0,0,1,74.18,598.967Z" transform="translate(-67.171 -554.94)"/><path class="c" d="M55.064,602.569s-1.982-.227-2.174,4.31a2.145,2.145,0,0,0,2.149-1.175A2.585,2.585,0,0,0,55.064,602.569Z" transform="translate(-48.302 -558.669)"/><path class="d" d="M433.686,602.654s-2.578,3.146-.531,7.9l-20.581,8.926-1.975.414-.91-3.98.608-5.022v-2.745Z" transform="translate(-364.532 -558.745)"/><path class="c" d="M49.16,544.3,77.646,539.1l37.745,6.013-23.444,8.44Z" transform="translate(-44.996 -502.421)"/><path class="c" d="M49.16,544.3,77.646,539.1l37.745,6.013-23.444,8.44Z" transform="translate(-44.996 -502.421)"/><path class="c" d="M40.8,584.764s-2.664,5.047.406,9.709l42.242,9.153s-2.622-4.021.135-9.6Z" transform="translate(-36.637 -542.89)"/><path class="e" d="M40.8,584.764s-2.664,5.047.406,9.709l42.242,9.153s-2.622-4.021.135-9.6Z" transform="translate(-36.637 -542.89)"/><path class="e" d="M54.956,600.154s-1.523,3.693,0,6.083" transform="translate(-49.533 -556.53)"/><path class="c" d="M94.972,672.217l23.583-10.063s1.319.284.466,1.251-23.594,9.779-23.594,9.779l-42.7-10.12Z" transform="translate(-48.16 -611.48)"/><path class="e" d="M94.972,672.217l23.583-10.063s1.319.284.466,1.251-23.594,9.779-23.594,9.779l-42.7-10.12Z" transform="translate(-48.16 -611.48)"/><path class="e" d="M399.352,675.154s-2.274,2.729,0,6.822" transform="translate(-354.473 -623.002)"/><rect class="e" width="10.753" height="0.114" transform="translate(46.825 58.271) rotate(-18.45)"/><rect class="e" width="13.102" height="0.114" transform="translate(46.821 59.186) rotate(-20.82)"/><rect class="e" width="15.187" height="0.114" transform="translate(46.89 60.265) rotate(-22.26)"/><rect class="e" width="17.481" height="0.114" transform="translate(47.054 61.216) rotate(-24.31)"/><rect class="e" width="19.12" height="0.114" transform="matrix(0.916, -0.401, 0.401, 0.916, 47.18, 61.68)"/><rect class="e" width="22.88" height="0.114" transform="translate(47.445 62.457) rotate(-23.36)"/><path class="f" d="M142.23,556.861l20.012-4.207,12.192,2.331-16.4,5.287Z" transform="translate(-127.483 -514.431)"/><path class="c" d="M448.867,591.984s1.035.417.428,1.062-23.875,7.378-23.875,7.378Z" transform="translate(-378.473 -549.289)"/><path class="d" d="M532.985,506.474s-2.577,3.145-.53,7.9L511.875,523.3l-1.975.416-.91-3.98.617-5.021v-2.748Z" transform="translate(-452.541 -473.502)"/><path class="g" d="M148.46,448.116l28.484-5.192,37.746,6.013-23.444,8.44Z" transform="translate(-133.005 -417.178)"/><path class="g" d="M140.055,488.584s-2.665,5.047.4,9.709l42.242,9.153s-2.621-4.024.14-9.6Z" transform="translate(-124.605 -457.646)"/><path class="e" d="M140.055,488.584s-2.665,5.047.4,9.709l42.242,9.153s-2.621-4.024.14-9.6l-13.358-2.892Z" transform="translate(-124.605 -457.646)"/><path class="e" d="M154.249,503.974s-1.521,3.692,0,6.083" transform="translate(-137.537 -471.286)"/><path class="g" d="M194.262,576.037l23.584-10.063s1.318.284.465,1.251S194.717,577,194.717,577l-42.7-10.12Z" transform="translate(-136.16 -526.236)"/><path class="e" d="M194.262,576.037l23.584-10.063s1.318.284.465,1.251S194.717,577,194.717,577l-42.7-10.12Z" transform="translate(-136.16 -526.236)"/><path class="e" d="M498.642,578.974s-2.274,2.729,0,6.822" transform="translate(-442.473 -537.758)"/><rect class="e" width="10.753" height="0.114" transform="translate(58.116 47.336) rotate(-18.45)"/><rect class="e" width="13.102" height="0.114" transform="translate(58.113 48.25) rotate(-20.82)"/><rect class="e" width="15.187" height="0.114" transform="translate(58.18 49.328) rotate(-22.26)"/><rect class="e" width="17.481" height="0.114" transform="translate(58.345 50.28) rotate(-24.31)"/><rect class="e" width="19.12" height="0.114" transform="matrix(0.916, -0.401, 0.401, 0.916, 58.47, 50.741)"/><rect class="e" width="22.88" height="0.114" transform="translate(58.736 51.519) rotate(-23.36)"/><path class="h" d="M241.53,460.681l20.012-4.207,12.191,2.331-16.4,5.287Z" transform="translate(-215.493 -429.187)"/><path class="g" d="M548.194,495.8s1.034.417.427,1.061-23.871,7.378-23.871,7.378Z" transform="translate(-466.509 -464.045)"/><path class="d" d="M542.412,396.444s-2.578,5.648-.531,10.4L521.3,413.272l-1.97.417-.91-3.98.608-5.022v-2.748Z" transform="translate(-460.899 -375.983)"/><path class="c" d="M157.89,338.087l28.486-5.193,37.746,6.013-23.445,8.44Z" transform="translate(-141.363 -319.659)"/><path class="c" d="M149.507,378.554s-2.669,5.047.4,9.709l42.242,9.153s-2.622-4.024.139-9.6Z" transform="translate(-132.979 -360.127)"/><path class="e" d="M149.507,378.554s-2.669,5.047.4,9.709l42.242,9.153s-2.622-4.024.139-9.6Z" transform="translate(-132.979 -360.127)"/><path class="e" d="M163.686,393.944s-1.523,3.693,0,6.083" transform="translate(-145.9 -373.767)"/><path class="c" d="M203.7,473.1l23.583-7.561s1.319.284.466,1.251-23.594,7.277-23.594,7.277l-42.7-10.12Z" transform="translate(-144.527 -435.807)"/><path class="e" d="M203.7,473.1l23.583-7.561s1.319.284.466,1.251-23.594,7.277-23.594,7.277l-42.7-10.12Z" transform="translate(-144.527 -435.807)"/><rect class="e" width="10.753" height="0.114" transform="translate(58.052 32.063) rotate(-18.45)"/><rect class="e" width="13.102" height="0.114" transform="translate(58.049 32.978) rotate(-20.82)"/><rect class="e" width="15.187" height="0.114" transform="translate(59.252 36.818) rotate(-22.26)"/><rect class="e" width="17.481" height="0.114" transform="translate(59.419 37.768) rotate(-24.31)"/><rect class="e" width="19.12" height="0.114" transform="matrix(0.916, -0.401, 0.401, 0.916, 59.544, 38.231)"/><rect class="e" width="22.88" height="0.114" transform="translate(59.809 39.01) rotate(-23.36)"/><path class="f" d="M250.96,350.651l20.012-4.207,12.191,2.331-16.4,5.287Z" transform="translate(-223.85 -331.668)"/><path class="c" d="M557.624,385.774s1.035.417.427,1.062-23.871,7.378-23.871,7.378Z" transform="translate(-474.867 -366.526)"/><ellipse class="b" cx="2.614" cy="0.292" rx="2.614" ry="0.292" transform="translate(31.985 67.261)"/><path class="e" d="M560.71,303.714a1.659,1.659,0,0,0,1.478,0" transform="translate(-498.38 -293.797)"/><path class="e" d="M486.04,324.044a6.252,6.252,0,0,0,2.578.8" transform="translate(-432.2 -311.815)"/><path class="e" d="M551.94,378.9a8.71,8.71,0,0,1,1.305-.811,21.285,21.285,0,0,0,1.933-1.181" transform="translate(-490.607 -358.664)"/></g></g></svg>