<svg xmlns="http://www.w3.org/2000/svg" width="54" height="54" viewBox="0 0 54 54"><defs><style>.a{fill:#f9ede0;}.b{fill:#efece8;}.c{fill:#c6c3bd;}</style></defs><g transform="translate(-0.529 -0.529)"><g transform="translate(35.039 52.408)"><path class="a" d="M299.427,451.92c-.282.1-.566.188-.851.272C298.863,452.107,299.145,452.014,299.427,451.92Z" transform="translate(-298.576 -451.401)"/><path class="a" d="M311.038,447.472c-.3.121-.608.241-.918.351C310.43,447.712,310.735,447.593,311.038,447.472Z" transform="translate(-308.773 -447.472)"/></g><circle class="b" cx="27" cy="27" r="27" transform="translate(0.529 0.529)"/><g transform="translate(15.567 51.679)"><path class="a" d="M287.571,455.584q-.414.115-.835.217Q287.157,455.7,287.571,455.584Z" transform="translate(-268.646 -453.909)"/><path class="a" d="M207.729,462.692c-.33-.023-.66-.049-.985-.084C207.071,462.643,207.4,462.669,207.729,462.692Z" transform="translate(-197.985 -460.114)"/><path class="a" d="M170.931,455.793q-.42-.1-.835-.217Q170.512,455.692,170.931,455.793Z" transform="translate(-165.612 -453.902)"/><path class="a" d="M195.252,461.046c-.3-.038-.591-.078-.884-.126C194.66,460.968,194.956,461.007,195.252,461.046Z" transform="translate(-187.052 -458.622)"/><path class="a" d="M220.764,463.682c-.5,0-.992-.016-1.484-.042C219.772,463.666,220.265,463.682,220.764,463.682Z" transform="translate(-209.058 -461.025)"/><path class="a" d="M183.006,458.746c-.284-.052-.566-.108-.846-.17C182.44,458.638,182.723,458.694,183.006,458.746Z" transform="translate(-176.269 -456.552)"/><path class="a" d="M133.167,441.909q-.631-.265-1.247-.557Q132.536,441.646,133.167,441.909Z" transform="translate(-131.889 -441.337)"/><path class="a" d="M146.918,447.823c-.309-.111-.614-.23-.918-.351C146.3,447.593,146.609,447.712,146.918,447.823Z" transform="translate(-144.327 -446.743)"/><path class="a" d="M233.484,463.64c-.492.026-.985.042-1.484.042C232.5,463.682,232.992,463.666,233.484,463.64Z" transform="translate(-220.295 -461.025)"/><path class="a" d="M249.793,462.608c-.327.035-.656.061-.985.084C249.137,462.669,249.467,462.643,249.793,462.608Z" transform="translate(-235.142 -460.114)"/><path class="a" d="M275.438,458.576c-.281.062-.563.118-.846.17C274.875,458.694,275.158,458.638,275.438,458.576Z" transform="translate(-257.918 -456.552)"/><path class="a" d="M262.948,460.912c-.293.048-.588.088-.884.126C262.359,461,262.655,460.961,262.948,460.912Z" transform="translate(-246.852 -458.615)"/><path class="a" d="M322.633,441.368q-.612.293-1.241.555C321.811,441.748,322.225,441.564,322.633,441.368Z" transform="translate(-299.259 -441.351)"/><path class="a" d="M158.979,452.193c-.286-.086-.569-.178-.851-.272C158.41,452.014,158.693,452.107,158.979,452.193Z" transform="translate(-155.04 -450.672)"/><path class="a" d="M318.4,446.128c-.131.055-.264.1-.4.156C318.131,446.232,318.264,446.183,318.4,446.128Z" transform="translate(-296.263 -445.556)"/><path class="a" d="M332.069,441.224l-.037.017C332.044,441.235,332.057,441.231,332.069,441.224Z" transform="translate(-308.658 -441.224)"/><path class="a" d="M177.827,457.58q-.287-.063-.571-.132Q177.54,457.517,177.827,457.58Z" transform="translate(-171.937 -455.555)"/><path class="a" d="M189.986,460.135c-.193-.032-.385-.067-.578-.1C189.6,460.068,189.793,460.1,189.986,460.135Z" transform="translate(-182.671 -457.838)"/><path class="a" d="M215.669,463.364c-.16-.008-.318-.025-.477-.036C215.352,463.339,215.509,463.356,215.669,463.364Z" transform="translate(-205.447 -460.75)"/><path class="a" d="M202.5,462.071c-.188-.021-.373-.047-.56-.071C202.131,462.024,202.316,462.05,202.5,462.071Z" transform="translate(-193.745 -459.576)"/><path class="a" d="M131.688,441.246l-.032-.014Z" transform="translate(-131.656 -441.231)"/><path class="a" d="M245.2,463.328c-.16.011-.317.028-.477.036C244.88,463.356,245.037,463.339,245.2,463.328Z" transform="translate(-231.531 -460.75)"/><path class="a" d="M294.442,454.256c-.181.054-.363.1-.546.155C294.079,454.361,294.261,454.31,294.442,454.256Z" transform="translate(-274.97 -452.736)"/><path class="a" d="M306.376,450.48c-.164.059-.33.112-.5.168C306.045,450.592,306.211,450.539,306.376,450.48Z" transform="translate(-285.556 -449.4)"/><path class="a" d="M143.012,446.292c-.132-.052-.265-.1-.4-.156C142.747,446.19,142.88,446.239,143.012,446.292Z" transform="translate(-141.337 -445.563)"/><path class="a" d="M154.376,450.648c-.165-.056-.332-.109-.5-.168C154.043,450.539,154.209,450.592,154.376,450.648Z" transform="translate(-151.288 -449.4)"/><path class="a" d="M257.816,462c-.187.024-.372.051-.56.071C257.444,462.05,257.629,462.024,257.816,462Z" transform="translate(-242.604 -459.576)"/><path class="a" d="M282.419,457.44q-.284.069-.571.132Q282.135,457.51,282.419,457.44Z" transform="translate(-264.328 -455.548)"/><path class="a" d="M270.21,460.032c-.192.035-.384.072-.578.1C269.826,460.1,270.017,460.068,270.21,460.032Z" transform="translate(-253.537 -457.838)"/><path class="a" d="M165.97,454.411c-.182-.05-.365-.1-.546-.155C165.605,454.31,165.787,454.361,165.97,454.411Z" transform="translate(-161.485 -452.736)"/></g><path class="c" d="M80.379,92.525a11.2,11.2,0,1,0-12.389,0h0a21.489,21.489,0,0,0-14.647,15.4h0c.295.356.6.7.914,1.043.076.083.155.162.232.244.241.256.484.508.734.754.1.1.209.2.315.3.231.22.466.438.7.65.119.1.239.208.358.311q.351.3.713.59c.127.1.255.2.383.3q.367.283.744.551c.13.092.258.187.389.277.265.183.535.358.806.532.122.077.242.158.365.234.314.193.633.378.955.559.085.048.168.1.254.146q.624.342,1.268.652l.032.014q.615.294,1.247.557c.131.055.264.1.4.156.3.121.608.241.918.351.164.059.33.112.5.168.282.1.566.188.851.273.181.054.363.1.546.155q.414.115.835.217.284.069.571.132c.281.062.563.118.846.17.192.035.384.072.578.1.293.048.588.088.884.126.187.024.372.051.56.071.327.035.656.061.985.084.16.011.317.028.477.036.492.028.985.044,1.484.044s.992-.016,1.484-.042c.16-.008.318-.025.477-.036.33-.023.66-.049.985-.084.188-.021.373-.047.56-.071.3-.038.591-.078.884-.126.193-.032.385-.067.578-.1.284-.052.566-.108.846-.17q.287-.063.571-.132.42-.1.835-.217c.182-.05.365-.1.546-.155.286-.086.569-.178.851-.272.165-.056.332-.109.5-.168.309-.111.614-.23.918-.351.132-.052.265-.1.4-.156.419-.175.833-.359,1.241-.555l.037-.017q.644-.309,1.268-.652c.086-.047.169-.1.254-.146.322-.181.641-.366.955-.559.123-.076.244-.156.365-.234.272-.174.541-.35.806-.532.131-.091.259-.184.389-.277q.377-.27.744-.551c.129-.1.256-.2.383-.3q.361-.288.713-.59c.12-.1.241-.206.358-.311.239-.212.473-.429.7-.65.1-.1.211-.2.315-.3q.375-.37.734-.754c.077-.082.156-.161.232-.244.313-.341.619-.688.914-1.043h0A21.486,21.486,0,0,0,80.379,92.525Z" transform="translate(-46.912 -63.392)"/></g></svg>